<svg width="16" height="16" viewBox="0 0 16 16" fill="none" xmlns="http://www.w3.org/2000/svg">
<rect width="16" height="16" fill="white"/>
<path d="M11.3333 12.8134H3.33333V4.66671H8V3.33337H3.33333C2.6 3.33337 2 3.93337 2 4.66671V12.6667C2 13.4 2.6 14 3.33333 14H11.3333C12.0667 14 12.6667 13.4 12.6667 12.6667V8.00004H11.3333V12.8134Z" fill="#0099CC"/>
<path d="M12.6666 1.33337H11.3333V3.33337H9.33325C9.33992 3.34004 9.33325 4.66671 9.33325 4.66671H11.3333V6.66004C11.3399 6.66671 12.6666 6.66004 12.6666 6.66004V4.66671H14.6666V3.33337H12.6666V1.33337Z" fill="#0099CC"/>
<path d="M10.0001 6H4.66675V7.33333H10.0001V6Z" fill="#0099CC"/>
<path d="M4.66675 8V9.33333H10.0001V8H8.00008H4.66675Z" fill="#0099CC"/>
<path d="M10.0001 10H4.66675V11.3333H10.0001V10Z" fill="#0099CC"/>
</svg>
