<svg width="8" height="4" viewBox="0 0 8 4" fill="none" xmlns="http://www.w3.org/2000/svg">
<path d="M4.00028 3.99999C3.9126 4.0005 3.82569 3.98369 3.74452 3.95054C3.66335 3.91738 3.58952 3.86853 3.52727 3.80679L0.862431 1.14195C0.800314 1.07983 0.751041 1.00609 0.717424 0.924927C0.683807 0.843768 0.666504 0.756782 0.666504 0.668936C0.666504 0.58109 0.683807 0.494104 0.717424 0.412945C0.751041 0.331786 0.800314 0.258043 0.862431 0.195927C0.924547 0.13381 0.99829 0.0845365 1.07945 0.0509193C1.16061 0.0173021 1.24759 -1.30901e-09 1.33544 0C1.42329 1.30901e-09 1.51027 0.0173021 1.59143 0.0509193C1.67259 0.0845365 1.74633 0.13381 1.80845 0.195927L4.00028 2.40108L6.19878 0.282534C6.26006 0.214388 6.33475 0.159619 6.41817 0.121655C6.50159 0.0836898 6.59194 0.0633455 6.68358 0.0618937C6.77522 0.0604418 6.86617 0.0779133 6.95075 0.113216C7.03533 0.14852 7.11172 0.200895 7.17513 0.267066C7.23854 0.333237 7.28762 0.41178 7.3193 0.497784C7.35097 0.583788 7.36456 0.675402 7.35921 0.766897C7.35386 0.858392 7.32969 0.947799 7.28821 1.02953C7.24673 1.11126 7.18884 1.18355 7.11815 1.24188L4.45331 3.81345C4.33147 3.93091 4.1695 3.99761 4.00028 3.99999Z" fill="#B8B8B8"/>
</svg>
