<svg width="24" height="24" viewBox="0 0 24 24" fill="none" xmlns="http://www.w3.org/2000/svg">
<path fill-rule="evenodd" clip-rule="evenodd" d="M3.25 4H20.75C21.0815 4 21.3995 4.1317 21.6339 4.36612C21.8683 4.60054 22 4.91848 22 5.25V19C22 19.3315 21.8683 19.6495 21.6339 19.8839C21.3995 20.1183 21.0815 20.25 20.75 20.25H3.25C2.91848 20.25 2.60054 20.1183 2.36612 19.8839C2.1317 19.6495 2 19.3315 2 19V5.25C2 4.91848 2.1317 4.60054 2.36612 4.36612C2.60054 4.1317 2.91848 4 3.25 4ZM20.75 5.25H3.25V9H20.75V5.25ZM20.75 10.25H3.25V14H20.75V10.25ZM3.25 15.25V19H20.75V15.25H3.25ZM4.49985 6.49999H5.74985V7.74999H4.49985V6.49999ZM7.00015 6.49999H15.7502V7.74999H7.00015V6.49999ZM5.74985 11.5H4.49985V12.75H5.74985V11.5ZM7.00015 11.5H15.7502V12.75H7.00015V11.5ZM4.49985 16.5H5.74985V17.75H4.49985V16.5ZM15.7502 16.5H7.00015V17.75H15.7502V16.5Z" fill="#B8B8B8"/>
</svg>
