<svg width="24" height="16" viewBox="0 0 24 16" fill="none" xmlns="http://www.w3.org/2000/svg">
<path d="M15.333 4.66683H16.6663V6.00016H15.333V4.66683ZM15.333 7.3335H16.6663V11.3335H15.333V7.3335ZM15.9997 1.3335C12.3197 1.3335 9.33301 4.32016 9.33301 8.00016C9.33301 11.6802 12.3197 14.6668 15.9997 14.6668C19.6797 14.6668 22.6663 11.6802 22.6663 8.00016C22.6663 4.32016 19.6797 1.3335 15.9997 1.3335ZM15.9997 13.3335C13.0597 13.3335 10.6663 10.9402 10.6663 8.00016C10.6663 5.06016 13.0597 2.66683 15.9997 2.66683C18.9397 2.66683 21.333 5.06016 21.333 8.00016C21.333 10.9402 18.9397 13.3335 15.9997 13.3335Z" fill="#BFBFBF"/>
</svg>
