<svg width="16" height="16" viewBox="0 0 16 16" fill="none" xmlns="http://www.w3.org/2000/svg">
<path d="M14.6667 12.6668H10.6667V10.0002H8.88C8.12 11.6135 6.48 12.6668 4.66667 12.6668C2.09333 12.6668 0 10.5735 0 8.00016C0 5.42683 2.09333 3.3335 4.66667 3.3335C6.48 3.3335 8.11333 4.38683 8.88 6.00016H16V10.0002H14.6667V12.6668ZM12 11.3335H13.3333V8.66683H14.6667V7.3335H7.96L7.80667 6.88683C7.34 5.56016 6.07333 4.66683 4.66667 4.66683C2.82667 4.66683 1.33333 6.16016 1.33333 8.00016C1.33333 9.84016 2.82667 11.3335 4.66667 11.3335C6.07333 11.3335 7.34 10.4402 7.80667 9.1135L7.96 8.66683H12V11.3335ZM4.66667 10.0002C3.56667 10.0002 2.66667 9.10016 2.66667 8.00016C2.66667 6.90016 3.56667 6.00016 4.66667 6.00016C5.76667 6.00016 6.66667 6.90016 6.66667 8.00016C6.66667 9.10016 5.76667 10.0002 4.66667 10.0002ZM4.66667 7.3335C4.3 7.3335 4 7.6335 4 8.00016C4 8.36683 4.3 8.66683 4.66667 8.66683C5.03333 8.66683 5.33333 8.36683 5.33333 8.00016C5.33333 7.6335 5.03333 7.3335 4.66667 7.3335Z" fill="#333333"/>
</svg>
