<svg width="82" height="19" viewBox="0 0 82 19" fill="none" xmlns="http://www.w3.org/2000/svg">
<path d="M13.268 18H12.0609L1.9125 2.78906H1.81875C1.9125 4.60156 1.95937 5.96875 1.95937 6.89062V18H0.810936V0.867188H2.00625L12.143 16.0547H12.2133C12.143 14.6484 12.1078 13.3125 12.1078 12.0469V0.867188H13.268V18ZM26.0695 9.36328H32.3859V17.1797C30.7297 17.8828 28.8664 18.2344 26.7961 18.2344C24.093 18.2344 22.0187 17.4727 20.5734 15.9492C19.1359 14.418 18.4172 12.2539 18.4172 9.45703C18.4172 7.71484 18.7727 6.17188 19.4836 4.82812C20.2023 3.47656 21.2258 2.43359 22.5539 1.69922C23.8898 0.964844 25.4211 0.597656 27.1477 0.597656C29.0148 0.597656 30.6906 0.941406 32.175 1.62891L31.6945 2.70703C30.2102 2.01953 28.6711 1.67578 27.0773 1.67578C24.8195 1.67578 23.0266 2.375 21.6984 3.77344C20.3781 5.16406 19.718 7.04297 19.718 9.41016C19.718 11.9883 20.3469 13.9297 21.6047 15.2344C22.8625 16.5312 24.7102 17.1797 27.1477 17.1797C28.7258 17.1797 30.0656 16.957 31.1672 16.5117V10.4883H26.0695V9.36328ZM50.3555 18H49.1484L39 2.78906H38.9062C39 4.60156 39.0469 5.96875 39.0469 6.89062V18H37.8984V0.867188H39.0938L49.2305 16.0547H49.3008C49.2305 14.6484 49.1953 13.3125 49.1953 12.0469V0.867188H50.3555V18Z" fill="black"/>
<path d="M67.3172 14.4492H65.2547V18H61.7156V14.4492H54.4031V11.9297L61.9148 0.867188H65.2547V11.6367H67.3172V14.4492ZM61.7156 11.6367V8.73047C61.7156 8.24609 61.7352 7.54297 61.7742 6.62109C61.8133 5.69922 61.8445 5.16406 61.868 5.01562H61.7742C61.4852 5.65625 61.1375 6.28125 60.7312 6.89062L57.5906 11.6367H61.7156ZM81.8414 18H69.8648V15.4805L74.1656 11.1328C75.4391 9.82812 76.2711 8.92578 76.6617 8.42578C77.0523 7.91797 77.3336 7.44922 77.5055 7.01953C77.6773 6.58984 77.7633 6.14453 77.7633 5.68359C77.7633 4.99609 77.5719 4.48438 77.1891 4.14844C76.8141 3.8125 76.3102 3.64453 75.6773 3.64453C75.0133 3.64453 74.3688 3.79688 73.7438 4.10156C73.1188 4.40625 72.4664 4.83984 71.7867 5.40234L69.818 3.07031C70.6617 2.35156 71.3609 1.84375 71.9156 1.54688C72.4703 1.25 73.0758 1.02344 73.732 0.867188C74.3883 0.703125 75.1227 0.621094 75.9352 0.621094C77.0055 0.621094 77.9508 0.816406 78.7711 1.20703C79.5914 1.59766 80.2281 2.14453 80.6813 2.84766C81.1344 3.55078 81.3609 4.35547 81.3609 5.26172C81.3609 6.05078 81.2203 6.79297 80.9391 7.48828C80.6656 8.17578 80.2359 8.88281 79.65 9.60938C79.0719 10.3359 78.0484 11.3711 76.5797 12.7148L74.3766 14.7891V14.9531H81.8414V18Z" fill="#0099CC"/>
</svg>
