<svg width="16" height="16" viewBox="0 0 16 16" fill="none" xmlns="http://www.w3.org/2000/svg">
<path d="M14.2735 7.60659L8.38683 1.71992C8.14016 1.47325 7.80016 1.33325 7.44683 1.33325H2.66683C1.9335 1.33325 1.3335 1.93325 1.3335 2.66659V7.44659C1.3335 7.79992 1.4735 8.13992 1.72683 8.38659L7.6135 14.2733C8.1335 14.7933 8.98016 14.7933 9.50016 14.2733L14.2802 9.49325C14.8002 8.97325 14.8002 8.13325 14.2735 7.60659ZM8.5535 13.3333L2.66683 7.44659V2.66659H7.44683L13.3335 8.55325L8.5535 13.3333Z" fill="#333333"/>
<path d="M4.3335 5.33325C4.88578 5.33325 5.3335 4.88554 5.3335 4.33325C5.3335 3.78097 4.88578 3.33325 4.3335 3.33325C3.78121 3.33325 3.3335 3.78097 3.3335 4.33325C3.3335 4.88554 3.78121 5.33325 4.3335 5.33325Z" fill="#333333"/>
</svg>
